<svg width="288" height="24" viewBox="0 0 288 24" fill="none" xmlns="http://www.w3.org/2000/svg">
<g clip-path="url(#clip0_576_33065)">
<g filter="url(#filter0_d_576_33065)">
<path d="M23.4362 17.716C20.963 19.0723 18.4898 20.3488 15.7772 21.0668C14.6603 21.3859 13.4635 21.6253 12.2668 21.705C8.59688 22.0242 4.92694 20.0296 3.65044 16.599C2.37394 13.0887 3.01219 9.73786 5.32585 6.78595C6.36301 5.50945 7.55972 4.71164 8.83622 4.15317C10.9903 3.03623 13.7029 2.39798 16.6548 2.39798C19.128 2.39798 21.5214 2.87667 23.516 3.67448C21.9204 2.63732 20.2449 1.75973 18.41 1.12148C15.0592 -0.0752384 11.6286 -0.474145 8.27775 0.722574C2.37394 2.71711 -1.21621 9.41873 0.379411 15.5619C1.49635 19.7903 4.04935 22.6624 8.43732 23.6996C10.8308 24.258 13.304 24.0187 15.6176 23.1411C17.4526 22.4231 19.128 21.6253 20.6439 20.7477C25.5903 17.8755 28.7018 14.4449 28.7815 14.3652C27.1061 15.4821 25.1914 16.7586 23.4362 17.716Z" fill="url(#paint0_linear_576_33065)"/>
<path d="M53.1943 10.5356C53.0348 11.8919 52.5561 13.2482 51.7583 14.3651C49.9233 16.9181 47.2905 18.1946 44.2588 18.6733C39.7113 19.3116 35.7222 17.7957 32.1321 15.0832C31.414 14.5247 30.696 13.9662 29.978 13.4078C28.0632 11.8121 26.1485 10.2165 24.1539 8.70067C21.202 6.38701 18.0108 4.39248 14.1015 3.75423C12.1868 3.43511 10.4316 3.59467 8.83594 4.15314C10.99 3.0362 13.7026 2.39795 16.6545 2.39795C19.1277 2.39795 21.5212 2.87664 23.5157 3.67445C24.9518 4.63182 26.308 5.66898 27.5845 6.70614C27.9834 7.02526 28.4621 7.42417 28.861 7.74329C30.696 9.33892 32.6108 10.8548 34.5255 12.3706C34.6053 12.4504 34.6851 12.4504 34.7648 12.5302C36.2807 13.7269 37.9561 14.6045 39.7911 15.0832H39.8708C40.0304 15.0832 40.1102 15.163 40.2698 15.163C40.3495 15.163 40.5091 15.163 40.5889 15.2427C40.6687 15.2427 40.8282 15.2427 40.908 15.3225C41.626 15.4023 42.3441 15.4821 43.1419 15.4821C43.8599 15.4821 44.5779 15.4023 45.2162 15.3225C45.3758 15.3225 45.4555 15.2427 45.6151 15.2427C45.7747 15.2427 45.9342 15.163 46.0938 15.163C46.2533 15.163 46.4129 15.0832 46.5725 15.0832C46.6523 15.0832 46.8118 15.0034 46.8916 15.0034C47.0512 15.0034 47.1309 14.9236 47.2905 14.9236C47.3703 14.9236 47.4501 14.8438 47.5298 14.8438C47.6096 14.8438 47.7692 14.764 47.849 14.764C48.1681 14.6843 48.4872 14.5247 48.8063 14.3651C48.9659 14.2854 49.2053 14.2056 49.3648 14.046C49.5244 13.9662 49.7637 13.8067 49.9233 13.7269C51.4391 12.9291 52.5561 11.8121 53.1943 10.5356Z" fill="url(#paint1_linear_576_33065)"/>
<path d="M53.1964 10.5352C52.5581 11.8117 51.4412 12.9286 50.0051 13.8062C49.8456 13.886 49.6062 14.0455 49.4467 14.1253C49.2871 14.2051 49.0478 14.2849 48.8882 14.4445C48.5691 14.604 48.2499 14.6838 47.9308 14.8434C47.851 14.8434 47.6915 14.9231 47.6117 14.9231C47.5319 14.9231 47.4521 15.0029 47.3723 15.0029C47.2128 15.0827 47.133 15.0827 46.9734 15.0827C46.8937 15.0827 46.7341 15.1625 46.6543 15.1625C46.4948 15.1625 46.3352 15.2423 46.1756 15.2423C46.0161 15.2423 45.8565 15.3221 45.6969 15.3221C45.5374 15.3221 45.4576 15.4018 45.298 15.4018C44.6598 15.4816 43.9418 15.5614 43.2237 15.5614C44.8991 15.4816 46.4947 15.0827 47.9308 14.2051C50.1647 12.769 51.2018 10.2958 50.7232 7.98217C50.2445 5.90786 48.1702 4.23245 45.6969 3.83355C43.7024 3.51442 41.9472 3.99311 40.2718 4.95049C38.0379 6.1472 35.9636 7.58327 33.8095 8.93955C33.4904 9.09911 33.2511 9.25867 33.0117 9.49802C35.8041 6.86524 38.5166 4.07289 42.1866 2.71661C45.5374 1.44011 49.4467 2.39749 51.7603 5.03027C52.8773 6.38655 53.4357 8.46086 53.1964 10.5352Z" fill="url(#paint2_linear_576_33065)"/>
</g>
<path d="M79.88 19V5H82.48V19H79.88ZM87.2667 19V5H89.4067L98.1867 15.78H97.1267V5H99.7067V19H97.5667L88.7867 8.22H89.8467V19H87.2667ZM106.838 11.44H113.818V13.64H106.838V11.44ZM107.058 19H104.458V5H114.678V7.18H107.058V19ZM118.193 19V5H120.793V19H118.193ZM125.579 19V5H127.719L136.499 15.78H135.439V5H138.019V19H135.879L127.099 8.22H128.159V19H125.579ZM142.771 19V5H145.371V19H142.771ZM152.997 19V7.2H148.357V5H160.237V7.2H155.597V19H152.997ZM165.589 10.82H172.549V12.96H165.589V10.82ZM165.789 16.82H173.689V19H163.189V5H173.409V7.18H165.789V16.82ZM188.454 19.2C187.361 19.2 186.314 19.0467 185.314 18.74C184.314 18.42 183.521 18.0133 182.934 17.52L183.834 15.5C184.394 15.94 185.088 16.3067 185.914 16.6C186.741 16.8933 187.588 17.04 188.454 17.04C189.188 17.04 189.781 16.96 190.234 16.8C190.688 16.64 191.021 16.4267 191.234 16.16C191.448 15.88 191.554 15.5667 191.554 15.22C191.554 14.7933 191.401 14.4533 191.094 14.2C190.788 13.9333 190.388 13.7267 189.894 13.58C189.414 13.42 188.874 13.2733 188.274 13.14C187.688 13.0067 187.094 12.8533 186.494 12.68C185.908 12.4933 185.368 12.26 184.874 11.98C184.394 11.6867 184.001 11.3 183.694 10.82C183.388 10.34 183.234 9.72667 183.234 8.98C183.234 8.22 183.434 7.52667 183.834 6.9C184.248 6.26 184.868 5.75333 185.694 5.38C186.534 4.99333 187.594 4.8 188.874 4.8C189.714 4.8 190.548 4.90667 191.374 5.12C192.201 5.33333 192.921 5.64 193.534 6.04L192.714 8.06C192.088 7.68667 191.441 7.41333 190.774 7.24C190.108 7.05333 189.468 6.96 188.854 6.96C188.134 6.96 187.548 7.04667 187.094 7.22C186.654 7.39333 186.328 7.62 186.114 7.9C185.914 8.18 185.814 8.5 185.814 8.86C185.814 9.28667 185.961 9.63333 186.254 9.9C186.561 10.1533 186.954 10.3533 187.434 10.5C187.928 10.6467 188.474 10.7933 189.074 10.94C189.674 11.0733 190.268 11.2267 190.854 11.4C191.454 11.5733 191.994 11.8 192.474 12.08C192.968 12.36 193.361 12.74 193.654 13.22C193.961 13.7 194.114 14.3067 194.114 15.04C194.114 15.7867 193.908 16.48 193.494 17.12C193.094 17.7467 192.474 18.2533 191.634 18.64C190.794 19.0133 189.734 19.2 188.454 19.2ZM200.84 19V13.46L201.42 15.06L195.34 5H198.12L203 13.1H201.44L206.36 5H208.92L202.84 15.06L203.44 13.46V19H200.84ZM211.446 19V5H213.586L222.366 15.78H221.306V5H223.886V19H221.746L212.966 8.22H214.026V19H211.446ZM231.038 10.82H237.998V12.96H231.038V10.82ZM231.238 16.82H239.138V19H228.638V5H238.858V7.18H231.238V16.82ZM243.036 19V5H248.796C250.036 5 251.096 5.2 251.976 5.6C252.87 6 253.556 6.57333 254.036 7.32C254.516 8.06667 254.756 8.95333 254.756 9.98C254.756 11.0067 254.516 11.8933 254.036 12.64C253.556 13.3733 252.87 13.94 251.976 14.34C251.096 14.7267 250.036 14.92 248.796 14.92H244.476L245.636 13.74V19H243.036ZM252.196 19L248.656 13.92H251.436L254.996 19H252.196ZM245.636 14.02L244.476 12.78H248.676C249.823 12.78 250.683 12.5333 251.256 12.04C251.843 11.5467 252.136 10.86 252.136 9.98C252.136 9.08667 251.843 8.4 251.256 7.92C250.683 7.44 249.823 7.2 248.676 7.2H244.476L245.636 5.92V14.02ZM265.205 19.2C264.112 19.2 263.105 19.0267 262.185 18.68C261.278 18.32 260.485 17.82 259.805 17.18C259.125 16.5267 258.598 15.76 258.225 14.88C257.852 14 257.665 13.04 257.665 12C257.665 10.96 257.852 10 258.225 9.12C258.598 8.24 259.125 7.48 259.805 6.84C260.498 6.18667 261.305 5.68667 262.225 5.34C263.145 4.98 264.152 4.8 265.245 4.8C266.432 4.8 267.498 4.99333 268.445 5.38C269.405 5.76667 270.212 6.33333 270.865 7.08L269.225 8.68C268.678 8.13333 268.085 7.73333 267.445 7.48C266.818 7.21333 266.125 7.08 265.365 7.08C264.632 7.08 263.952 7.2 263.325 7.44C262.698 7.68 262.158 8.02 261.705 8.46C261.252 8.9 260.898 9.42 260.645 10.02C260.405 10.62 260.285 11.28 260.285 12C260.285 12.7067 260.405 13.36 260.645 13.96C260.898 14.56 261.252 15.0867 261.705 15.54C262.158 15.98 262.692 16.32 263.305 16.56C263.918 16.8 264.598 16.92 265.345 16.92C266.038 16.92 266.705 16.8133 267.345 16.6C267.998 16.3733 268.618 16 269.205 15.48L270.685 17.42C269.952 18.0067 269.098 18.4533 268.125 18.76C267.165 19.0533 266.192 19.2 265.205 19.2ZM268.225 17.08V11.84H270.685V17.42L268.225 17.08ZM278.554 19V13.46L279.134 15.06L273.054 5H275.834L280.714 13.1H279.154L284.074 5H286.634L280.554 15.06L281.154 13.46V19H278.554Z" fill="white"/>
</g>
<defs>
<filter id="filter0_d_576_33065" x="-4" y="0" width="61.25" height="32" filterUnits="userSpaceOnUse" color-interpolation-filters="sRGB">
<feFlood flood-opacity="0" result="BackgroundImageFix"/>
<feColorMatrix in="SourceAlpha" type="matrix" values="0 0 0 0 0 0 0 0 0 0 0 0 0 0 0 0 0 0 127 0" result="hardAlpha"/>
<feOffset dy="4"/>
<feGaussianBlur stdDeviation="2"/>
<feComposite in2="hardAlpha" operator="out"/>
<feColorMatrix type="matrix" values="0 0 0 0 0 0 0 0 0 0 0 0 0 0 0 0 0 0 0.25 0"/>
<feBlend mode="normal" in2="BackgroundImageFix" result="effect1_dropShadow_576_33065"/>
<feBlend mode="normal" in="SourceGraphic" in2="effect1_dropShadow_576_33065" result="shape"/>
</filter>
<linearGradient id="paint0_linear_576_33065" x1="24.9962" y1="12.768" x2="-3.8024" y2="11.0235" gradientUnits="userSpaceOnUse">
<stop stop-color="#0A7C40"/>
<stop offset="0.9157" stop-color="#84C341"/>
</linearGradient>
<linearGradient id="paint1_linear_576_33065" x1="8.82501" y1="10.6248" x2="53.1848" y2="10.6248" gradientUnits="userSpaceOnUse">
<stop offset="0.1514" stop-color="#7FBF43"/>
<stop offset="0.2419" stop-color="#70B442"/>
<stop offset="0.5934" stop-color="#3A8E3C"/>
<stop offset="0.8567" stop-color="#197639"/>
<stop offset="1" stop-color="#0C6D38"/>
</linearGradient>
<linearGradient id="paint2_linear_576_33065" x1="35.6207" y1="13.8455" x2="53.4809" y2="3.98705" gradientUnits="userSpaceOnUse">
<stop stop-color="#098947"/>
<stop offset="0.9157" stop-color="#84C341"/>
</linearGradient>
<clipPath id="clip0_576_33065">
<rect width="288" height="24" fill="white"/>
</clipPath>
</defs>
</svg>
